<svg width="36" height="88" xmlns="http://www.w3.org/2000/svg">
    <path d="M22.517 9.764C22.252 5.287 27.038 1.28 30.79.9c1.057 3.957-3.467 8.543-8.273 8.863h.001zm-5.42 9.472c2.442-3.77 8.686-4.204 11.943-2.314-1.496 3.815-7.871 4.87-11.944 2.314zm-5.85 12.683c1.67-4.165 7.715-5.778 11.275-4.543-.732 4.03-6.785 6.278-11.276 4.543zM9.201 47.637c.338-4.47 5.62-7.808 9.389-7.688.515 4.061-4.583 8.008-9.389 7.688zm2.28 14.968c-1.01-4.37 3.04-9.11 6.677-10.104 1.702 3.728-1.992 8.995-6.678 10.104zm10.57 10.228c-2.696-3.597-.908-9.555 2.018-11.918 3.068 2.731 1.822 9.031-2.02 11.918h.001zm11.696 9.179c-3.555-2.763-3.414-8.98-1.22-12.025 3.688 1.83 4.159 8.233 1.22 12.025zm-11.283 3.082c2.707 3.588 8.967 3.58 12.08 1.463-1.766-3.698-8.2-4.3-12.08-1.463zM9.323 72.027c1.658 4.171 7.698 5.803 11.263 4.578-.72-4.032-6.768-6.298-11.263-4.578zM.004 55.397c-.172 4.482 4.697 8.39 8.455 8.693.975-3.978-3.641-8.47-8.455-8.692v-.001zm.45-19.354c-1.5 4.23 1.988 9.393 5.487 10.789 2.115-3.514-.955-9.163-5.486-10.789zM5.932 18.69c-2.705 3.59-.935 9.554 1.983 11.925 3.078-2.723 1.85-9.026-1.983-11.925zm8.011-14.03c-3.347 3.008-2.76 9.198-.354 12.082 3.546-2.087 3.557-8.508.354-12.082z" fill="#DFBF6B" fill-rule="evenodd"/>
</svg>
